<?xml version="1.0" encoding="utf-8"?>
<!-- Generator: Adobe Illustrator 19.2.0, SVG Export Plug-In . SVG Version: 6.00 Build 0)  -->
<svg version="1.1" id="Layer_1" xmlns="http://www.w3.org/2000/svg" xmlns:xlink="http://www.w3.org/1999/xlink" x="0px" y="0px"
	 viewBox="0 0 100 100" style="enable-background:new 0 0 100 100;" xml:space="preserve">
<style type="text/css">
	.st0{fill:#C5C7B6;}
</style>
<g>
	<polygon class="st0" points="84.5,45 84,44.6 84.4,44.2 84.9,44.6 	"/>
	
		<rect x="24.6" y="68.3" transform="matrix(0.6489 -0.7609 0.7609 0.6489 -43.5471 43.4005)" class="st0" width="1.2" height="1.1"/>
	<g>
		<g>
			<polygon class="st0" points="21.7,76.1 21.1,76.4 17.6,72.7 13.6,72.7 12.6,71.7 10.8,71.7 10.8,73 9.7,73 7.4,76.5 1.9,77.1 
				1.9,76.6 6.5,75.5 6.7,73.7 3.6,73.7 3.6,70.4 6.6,68.9 6.6,67.6 4.9,67.6 4.9,66.2 7.1,66.2 7.1,65.8 5.9,64.5 7.5,62.9 
				15.5,62.9 15.5,70.6 17.3,70.6 17.3,71.8 18.4,71.8 			"/>
		</g>
		<g>
			<rect x="21.5" y="66.7" class="st0" width="1.5" height="1.2"/>
		</g>
		<g>
			<rect x="27.9" y="69.5" class="st0" width="2.2" height="0.6"/>
		</g>
		<g>
			<polygon class="st0" points="32.5,72.2 32,73.4 30.6,73.4 30.6,71.6 29.6,71.6 29.6,71.1 31.5,71.1 			"/>
		</g>
		<g>
			<polygon class="st0" points="37.4,75.9 36.6,76.8 36,76.2 33.9,77.7 32.9,77.1 32.9,74.9 34.2,74.3 34.2,73.2 			"/>
		</g>
	</g>
	<polygon class="st0" points="7.8,30.4 6.7,29.7 6.7,24.4 10.3,26.5 10.3,24.3 17.6,24.3 17.6,30.4 	"/>
	<polygon class="st0" points="17.6,36.4 6.7,36.4 6.7,30.5 7.6,31.1 17.6,31.1 	"/>
	<polygon class="st0" points="19.2,55.1 18.2,56 18.2,60 13.3,60 13.3,57.1 10.9,55.6 10.9,54.5 6.7,45.7 6.7,37.1 12.4,37.1 
		12.4,43.3 	"/>
	<polygon class="st0" points="20.7,37.1 20.7,51.1 19.3,51.1 19.3,53.9 13.1,43.1 13.1,37.1 	"/>
	<polygon class="st0" points="18.3,36.4 18.3,24.3 19.3,24.3 19.3,26.6 21.2,26.6 22.9,31.5 26.6,32.8 27.5,33.7 27.5,36.4 	"/>
	<polygon class="st0" points="27.5,40.7 30.6,40.7 30.6,50 21.3,50 21.3,37.1 27.5,37.1 	"/>
	<polygon class="st0" points="21.3,50.7 30.6,50.7 30.6,63.3 25.1,63.3 18.9,60.2 18.9,56.3 20,55.4 20,51.8 21.3,51.8 	"/>
	<polygon class="st0" points="40.6,62.2 32.9,62.2 32.9,63.3 31.2,63.3 31.2,50.7 40.6,50.7 	"/>
	<polygon class="st0" points="21.7,25.9 20,25.9 20,24.3 40.5,24.3 40.5,31.3 27.5,31.3 27.5,32.7 27,32.2 23.4,31 	"/>
	<rect x="28.2" y="32" class="st0" width="12.4" height="8"/>
	<rect x="31.2" y="40.7" class="st0" width="12.6" height="9.3"/>
	<rect x="41.2" y="24.3" class="st0" width="8.9" height="4.6"/>
	<rect x="41.2" y="29.5" class="st0" width="8.9" height="6.6"/>
	<polygon class="st0" points="44.5,40 41.2,40 41.2,36.8 50.1,36.8 50.1,37.7 53.3,42.8 44.5,42.8 	"/>
	<polygon class="st0" points="55.3,50 44.5,50 44.5,43.4 53.8,43.4 55.3,45.8 	"/>
	<polygon class="st0" points="47.3,55.5 47.3,52.4 41.3,52.4 41.3,50.7 44.5,50.7 44.5,50.7 55.3,50.7 55.3,59.5 52,57.8 50.9,58.6 
			"/>
	<polygon class="st0" points="47.7,72.8 48.5,75.5 43.4,74.3 39.3,67.8 37.3,69.5 33.6,63.3 33.6,62.9 41.3,62.9 41.3,53.1 
		46.6,53.1 46.6,55.9 50.8,59.4 52,58.6 55.3,60.3 55.3,66.7 	"/>
	<polygon class="st0" points="57.3,34 50.8,34 50.8,24.3 59,24.3 56.8,27.8 56.8,27.8 56.5,28.3 56.5,28.3 55.2,30.5 57.3,32.7 	"/>
	<polygon class="st0" points="52.5,40.3 50.8,37.5 50.8,34.7 57.3,34.7 57.3,35.3 59.6,37.5 58.8,38 58.8,40.3 	"/>
	<polygon class="st0" points="55.9,45.6 53,40.9 59,40.9 61,44.3 62.2,44.3 61.4,45.3 63.2,49.7 55.9,49.7 	"/>
	<polygon class="st0" points="61.2,59.7 55.9,59.7 55.9,50.3 64.1,50.3 61.2,56.8 	"/>
	<polygon class="st0" points="60.1,68.6 55.9,66.7 55.9,60.4 61.2,60.4 61.2,61.4 59.8,63.5 64.2,63.5 64.2,68.6 	"/>
	<polygon class="st0" points="57.3,28.3 60.3,28.3 64.6,30.8 64.6,35.5 58.6,35.5 58,35 58,32.4 56.1,30.4 	"/>
	<polygon class="st0" points="62.2,45.4 63.5,43.6 61.4,43.6 59.5,40.5 59.5,38.3 60.6,37.5 59.3,36.2 64.8,36.2 66.5,37.5 66.5,45 
		65.6,47.5 63.4,48.3 	"/>
	<polygon class="st0" points="63,54.4 67,54.4 67,64.7 64.9,64.7 64.9,62.9 61,62.9 61.8,61.6 61.8,57 	"/>
	<polygon class="st0" points="64.9,30.1 60.9,27.9 62.3,26.4 62.3,28.1 65.1,28.1 66.7,25.9 69.5,25.9 	"/>
	<polygon class="st0" points="71.7,42.4 70.2,44.1 67.2,44.7 67.2,37.6 68.6,36.9 71.7,36.9 	"/>
	<polygon class="st0" points="72.4,62.7 69.3,62.7 69.3,64.7 67.7,64.7 67.7,54.4 72.4,54.4 	"/>
	<polygon class="st0" points="68.9,31.4 71.2,29.3 72,29.3 72,32.2 73.8,32.2 73.8,36.2 68.9,36.2 	"/>
	<polygon class="st0" points="76.8,46.9 75,49.7 63.9,49.7 63.6,48.9 66.2,48 67.1,45.4 70.6,44.7 72.1,43 	"/>
	<polygon class="st0" points="73.8,36.9 77.1,36.9 78.6,35 78.7,35 78.7,40 77.6,40 77.6,43.2 75.5,45 72.4,42.4 72.4,36.9 
		73.8,36.9 	"/>
	<polygon class="st0" points="75.5,52.5 74.6,53.8 63.3,53.8 64.8,50.3 79.1,50.3 78.4,51.9 	"/>
	<polygon class="st0" points="74.7,54.4 79.3,60.4 79.7,61.2 79,61.2 79,62.7 73.1,62.7 73.1,54.4 	"/>
	<polygon class="st0" points="79.9,42.1 79.9,44 82.1,44 79.4,46.5 77.4,46.5 76,45.4 78.3,43.5 78.3,40.7 78.7,40.7 78.7,42.1 	"/>
	<polygon class="st0" points="79.6,59.7 75.5,54.4 80.4,54.4 83.1,56.3 	"/>
	<polygon class="st0" points="79.2,70.9 77.5,64.3 73.6,64.3 72.3,65.6 71.3,64.7 70,64.7 70,63.4 79.6,63.4 79.6,61.8 80.1,61.8 
		83.7,68.5 83.7,73.9 	"/>
	<polygon class="st0" points="84.5,45.8 86.1,48.9 86.1,49.7 75.8,49.7 77.4,47.2 79.7,47.2 82.7,44.4 	"/>
	<polygon class="st0" points="79.9,50.3 86.1,50.3 86.1,53.3 83.6,55.8 80.6,53.8 75.4,53.8 75.9,53.1 78.8,52.5 	"/>
	<polygon class="st0" points="87.2,42.1 87.7,44.5 87,44.5 87,42.1 	"/>
	<polygon class="st0" points="86.3,45.2 87.7,45.2 87.7,46 86.2,46 84.9,45.3 85.6,44.5 84.3,43.5 83.6,44.2 82.4,43.3 80.5,43.3 
		80.5,42.1 86.3,42.1 	"/>
	<polygon class="st0" points="86.3,38 87.9,39.6 87.2,41.4 79.3,41.4 79.3,34.2 80.4,32.9 80.6,32.9 80.6,35.7 87.6,35.7 88,36.2 	
		"/>
	<polygon class="st0" points="88.4,36.7 89.1,37.5 89.1,42 87.9,41.6 88.7,39.4 87.3,38 	"/>
	<polygon class="st0" points="91.6,35.9 89.9,36.5 89.9,34.7 91.6,34.7 	"/>
	<polygon class="st0" points="90.6,31.9 90,31.9 90,27.3 91.9,27.3 91.9,28.4 90.6,29.6 	"/>
	<polygon class="st0" points="92.9,34.7 92.9,35.5 92.3,35.7 92.3,34.7 	"/>
	<polygon class="st0" points="91.5,29.8 92.6,28.6 92.6,27.3 94.1,27.3 94.1,31.9 91.5,31.9 	"/>
	<polygon class="st0" points="95.1,33.8 94.8,34.8 93.6,35.2 93.6,34 90,34 90,32.5 94.1,32.5 94.1,34.5 94.6,34.5 	"/>
	<polygon class="st0" points="94.6,30.8 94.6,26.8 95.8,22.3 96.7,22.3 96.7,24.9 98.1,24.9 98.1,26.4 	"/>
	<path class="st0" d="M88.4,44.5L88.4,44.5L88.4,44.5L88.4,44.5L88.4,44.5z"/>
	<polygon class="st0" points="91.8,36.7 89.7,37.4 87.9,35 81.3,35 81.3,32.9 84.1,32.9 87,27.3 89.3,27.3 89.3,36 89.9,36.9 
		91.7,36.4 	"/>
</g>
</svg>
