<svg xmlns="http://www.w3.org/2000/svg" xmlns:xlink="http://www.w3.org/1999/xlink" version="1.1" x="0px" y="0px" viewBox="0 0 100 100" enable-background="new 0 0 100 100" xml:space="preserve"><path d="M49.836,27.188c-5.131,0-9.292,4.16-9.292,9.292c0,3.798,2.28,7.062,5.545,8.502c1.146,0.506,2.412,0.789,3.746,0.789  c1.333,0,2.6-0.283,3.746-0.789c3.266-1.44,5.546-4.704,5.546-8.502C59.128,31.349,54.969,27.188,49.836,27.188z"></path><path d="M70.086,42.702c0,3.376,2.027,6.279,4.931,7.56c1.019,0.45,2.146,0.701,3.331,0.701c1.185,0,2.312-0.251,3.33-0.701  c2.903-1.281,4.932-4.184,4.932-7.56c0-4.563-3.7-8.261-8.262-8.261C73.785,34.441,70.086,38.139,70.086,42.702z"></path><path d="M21.325,34.441c-4.562,0-8.26,3.698-8.26,8.261c0,3.376,2.027,6.279,4.93,7.56c1.02,0.45,2.146,0.701,3.33,0.701  c1.186,0,2.312-0.251,3.331-0.701c2.904-1.281,4.931-4.184,4.931-7.56C29.586,38.139,25.888,34.441,21.325,34.441z"></path><path d="M99.785,47.819l-0.074-1.361C97.894,20.497,76.26,0,49.836,0c-27.614,0-50,22.386-50,50s22.386,50,50,50  c27.614,0,50-22.386,50-50C99.836,49.269,99.817,48.542,99.785,47.819z M11.215,77.012c-0.615-0.877-1.202-1.775-1.757-2.694V60.845  c0-0.523,0.394-0.947,0.878-0.947c0.485,0,0.879,0.424,0.879,0.947V77.012z M38.465,95.745c-0.665-0.164-1.323-0.344-1.977-0.537  v-38.32c0-0.591,0.443-1.067,0.988-1.067c0.546,0,0.989,0.477,0.989,1.067V95.745z M63.184,95.209  c-0.653,0.193-1.313,0.372-1.977,0.536V56.888c0-0.591,0.442-1.067,0.988-1.067s0.988,0.477,0.988,1.067V95.209z M90.213,74.317  c-1.068,1.774-1.757,2.696-1.757,2.696V60.845c0-0.523,0.395-0.947,0.879-0.947c0.485,0,0.878,0.424,0.878,0.947V74.317z   M95.304,62.438V56.34c0-1.965-1.594-3.558-3.558-3.558H70.269v39.7c-0.899,0.433-1.818,0.829-1.361,0.626V52.782v-0.963  c0-2.21-1.79-4-4-4H34.766c-2.209,0-4,1.791-4,4v0.963v40.323c-0.458-0.202-0.911-0.411-1.361-0.628V52.782H7.926  c-1.965,0-3.557,1.593-3.557,3.558v6.093C3.288,58.472,2.707,54.304,2.707,50c0-26.029,21.101-47.13,47.13-47.13  S96.966,23.971,96.966,50C96.966,55.446,95.304,62.438,95.304,62.438z"></path></svg>